<?xml version="1.0" encoding="iso-8859-1"?>
<!-- Generator: Adobe Illustrator 18.0.0, SVG Export Plug-In . SVG Version: 6.00 Build 0)  -->
<!DOCTYPE svg PUBLIC "-//W3C//DTD SVG 1.1//EN" "http://www.w3.org/Graphics/SVG/1.1/DTD/svg11.dtd">
<svg version="1.1" id="Capa_1" xmlns="http://www.w3.org/2000/svg" xmlns:xlink="http://www.w3.org/1999/xlink" x="0px" y="0px"
	 viewBox="0 0 457.996 457.996" style="enable-background:new 0 0 457.996 457.996;" xml:space="preserve">
<path id="XMLID_1597_" d="M457.996,228.998c0-29.372-28.261-53.269-62.998-53.269c-10.401,0-30.506,2.241-52.363,6.199
	c18.254-12.657,34.055-25.288,41.41-32.643c24.563-24.562,27.648-61.443,6.879-82.213c-20.769-20.77-57.65-17.684-82.212,6.879
	c-7.355,7.355-19.987,23.157-32.643,41.41c3.957-21.857,6.199-41.962,6.199-52.363C282.267,28.261,258.371,0,228.998,0
	c-29.373,0-53.269,28.261-53.269,62.998c0,10.401,2.242,30.507,6.199,52.364c-12.657-18.253-25.288-34.055-32.643-41.411h-0.001
	c-24.563-24.564-61.443-27.647-82.213-6.879c-20.769,20.77-17.683,57.65,6.88,82.213c7.355,7.355,23.156,19.986,41.41,32.643
	c-21.857-3.957-41.962-6.199-52.364-6.199C28.261,175.729,0,199.626,0,228.998s28.261,53.269,62.998,53.269
	c10.401,0,30.507-2.242,52.363-6.199c-18.254,12.657-34.055,25.289-41.41,32.643c-24.563,24.563-27.649,61.443-6.879,82.213
	c8.966,8.966,21.448,13.855,34.952,13.855c2.114,0,4.255-0.12,6.41-0.363c14.884-1.678,29.392-8.913,40.85-20.372
	c7.355-7.355,19.987-23.156,32.644-41.41c-3.958,21.858-6.2,41.963-6.2,52.364c0,34.737,23.896,62.998,53.269,62.998
	c29.372,0,53.269-28.261,53.269-62.998c0-10.401-2.242-30.507-6.199-52.365c12.657,18.254,25.288,34.056,32.644,41.411
	c11.458,11.459,25.966,18.694,40.85,20.372c2.156,0.243,4.296,0.363,6.411,0.363c13.502,0,25.986-4.89,34.951-13.855
	c20.77-20.77,17.684-57.65-6.879-82.213c-7.354-7.355-23.156-19.986-41.41-32.643c21.857,3.957,41.962,6.199,52.363,6.199
	C429.735,282.267,457.996,258.37,457.996,228.998z M228.998,281.495c-28.947,0-52.497-23.55-52.497-52.497
	s23.55-52.497,52.497-52.497c28.947,0,52.496,23.55,52.496,52.497S257.945,281.495,228.998,281.495z"/>
<g>
</g>
<g>
</g>
<g>
</g>
<g>
</g>
<g>
</g>
<g>
</g>
<g>
</g>
<g>
</g>
<g>
</g>
<g>
</g>
<g>
</g>
<g>
</g>
<g>
</g>
<g>
</g>
<g>
</g>
</svg>
